#!OML:ASF H:\Male1\Project 1\Capture day 1\Session 1\Male1.ASF
:FULLY-SPECIFIED
:DEGREES
177
root 16.3492 15.4598 -0.8752 -188.738 -94.4399 186.317
lowerback 5.57656 1.30876 -3.08738
upperback 2.63182 1.49588 -1.97641
thorax -0.443875 0.702874 -0.386908
lowerneck -7.51618 0.77183 1.21545
upperneck 3.15439 1.11366 -4.33195
head 2.3466 0.427562 -1.55581
rclavicle 4.87022e-015 -1.19271e-014
rhumerus -43.8053 21.1051 -96.2211
rradius 36.8197
rwrist -20.0892
rhand -15.3386 0.412018
rfingers 7.12502
rthumb 10.8382 -29.2883
lclavicle 4.87022e-015 -1.19271e-014
lhumerus 50.7825 -6.83503 12.5136
lradius 65.3941
lwrist -8.78268
lhand -55.89 8.00242
lfingers 7.12502
lthumb -28.2311 35.8958
rfemur 1.41775 11.0667 21.0169
rtibia 20.1384
rfoot -35.4207 -33.6213
rtoes -12.2485
lfemur -1.4894 -20.9665 -21.092
ltibia 22.3524
lfoot -20.4003 25.3247
ltoes -10.2589
178
root 16.3526 15.4635 -0.862844 -188.425 -94.524 186.198
lowerback 5.55436 1.32941 -3.51635
upperback 2.65343 1.5005 -2.01745
thorax -0.418561 0.700273 -0.189085
lowerneck -7.74103 0.741986 0.911241
upperneck 3.05204 1.08815 -4.10882
head 2.34661 0.416005 -1.42998
rclavicle 3.08116e-015 -4.77083e-015
rhumerus -43.5839 21.5927 -96.2791
rradius 36.7969
rwrist -19.9121
rhand -14.9489 0.197494
rfingers 7.12502
rthumb 11.214 -29.4828
lclavicle 3.08116e-015 -4.77083e-015
lhumerus 52.5096 -5.80129 11.6987
lradius 65.6037
lwrist -8.60955
lhand -55.6627 4.43183
lfingers 7.12502
lthumb -28.0139 32.3609
rfemur 1.2314 10.7829 20.87
rtibia 20.059
rfoot -35.1328 -33.5563
rtoes -12.7943
lfemur -1.76969 -21.2999 -21.062
ltibia 22.4278
lfoot -20.665 25.2553
ltoes -9.24396
179
root 16.3578 15.4681 -0.855269 -184.445 -94.4803 182.367
lowerback 5.66054 1.2205 -3.73254
upperback 2.69497 1.34037 -1.93069
thorax -0.437846 0.617519 0.0286267
lowerneck -8.16302 0.883243 0.399678
upperneck 2.89985 1.30277 -3.68628
head 2.36751 0.526188 -1.19262
rclavicle 8.15017e-015 -5.56597e-015
rhumerus -43.2711 22.2463 -96.3396
rradius 36.7864
rwrist -19.7748
rhand -14.4136 0.716768
rfingers 7.12502
rthumb 11.7302 -28.9348
lclavicle 8.15017e-015 -5.56597e-015
lhumerus 53.4765 -4.32177 10.2917
lradius 65.9859
lwrist -7.47478
lhand -55.6072 1.22497
lfingers 7.12502
lthumb -27.9608 29.1627
rfemur 1.05182 10.7722 21.1421
rtibia 19.9996
rfoot -35.026 -33.6277
rtoes -13.0058
lfemur -2.02285 -21.4964 -20.6679
ltibia 22.5267
lfoot -20.9387 25.1299
ltoes -8.40127
180
root 16.3671 15.4712 -0.845174 -181.361 -94.3819 179.446
lowerback 5.79354 1.11544 -3.90871
upperback 2.72495 1.18243 -1.94745
thorax -0.479377 0.536464 0.117293
lowerneck -8.50484 1.02582 0.0798392
upperneck 2.7185 1.50156 -3.25733
head 2.36429 0.633478 -0.987834
rclavicle 1.14301e-014 9.54166e-015
rhumerus -42.7837 22.5113 -96.3415
rradius 36.7638
rwrist -19.4545
rhand -14.0965 1.05932
rfingers 7.12502
rthumb 12.0361 -28.5746
lclavicle 1.14301e-014 9.54166e-015
lhumerus 54.0229 -2.52639 8.55726
lradius 66.5523
lwrist -5.41857
lhand -55.3308 -3.24326
lfingers 7.12502
lthumb -27.6965 24.7372
rfemur 0.844689 10.6748 21.2917
rtibia 19.9058
rfoot -34.707 -33.6679
rtoes -13.188
lfemur -2.32564 -21.6154 -20.3684
ltibia 22.6977
lfoot -21.0015 25.177
ltoes -8.52629
181
root 16.3785 15.4726 -0.833917 -180.083 -94.2243 178.334
lowerback 5.97571 1.03136 -4.12912
upperback 2.75806 1.04337 -2.05447
thorax -0.543756 0.464296 0.136339
lowerneck -8.81744 1.14783 0.0154807
upperneck 2.5228 1.65746 -3.07028
head 2.35585 0.715103 -0.9079
rclavicle 1.82882e-014 -2.22639e-014
rhumerus -42.1555 22.5825 -96.291
rradius 36.8495
rwrist -19.271
rhand -14.25 0.874612
rfingers 7.12502
rthumb 11.888 -28.7679
lclavicle 1.82882e-014 -2.22639e-014
lhumerus 54.1261 -0.363826 7.20502
lradius 66.5774
lwrist -4.4819
lhand -54.7503 -5.0237
lfingers 7.12502
lthumb -27.1413 23.0447
rfemur 0.624529 10.5059 21.2521
rtibia 19.8209
rfoot -34.3778 -33.5239
rtoes -13.2042
lfemur -2.65193 -21.5782 -20.2211
ltibia 22.8894
lfoot -20.9247 25.2161
ltoes -9.05373
182
root 16.3914 15.4764 -0.824687 -175.937 -93.8507 174.336
lowerback 6.2226 1.01155 -4.24234
upperback 2.79112 0.994811 -2.01724
thorax -0.647626 0.439079 0.237409
lowerneck -9.09923 1.26496 -0.0454039
upperneck 2.18204 1.81012 -3.10418
head 2.29618 0.788624 -0.899506
rclavicle 1.8487e-014 3.18055e-015
rhumerus -41.5454 22.5398 -96.0009
rradius 37.1747
rwrist -19.4631
rhand -14.5148 0.694216
rfingers 7.12502
rthumb 11.6327 -28.9629
lclavicle 1.8487e-014 3.18055e-015
lhumerus 53.6113 2.0095 6.43399
lradius 66.1741
lwrist -5.33387
lhand -54.9685 -3.38759
lfingers 7.12502
lthumb -27.35 24.6481
rfemur 0.301104 10.548 21.4199
rtibia 19.8735
rfoot -34.3087 -33.1681
rtoes -12.7284
lfemur -2.90295 -21.3207 -19.8599
ltibia 22.992
lfoot -20.9744 25.1375
ltoes -9.05038
183
root 16.3984 15.4845 -0.810651 -170.797 -93.1173 169.461
lowerback 6.25849 1.15391 -4.44088
upperback 2.76187 1.17064 -1.92554
thorax -0.70928 0.526373 0.429472
lowerneck -9.09477 1.34301 0.0593017
upperneck 1.61966 1.8928 -3.4331
head 2.11626 0.824011 -1.01837
rclavicle -1.15295e-014 -2.38542e-014
rhumerus -41.1601 22.322 -95.5629
rradius 37.7743
rwrist -20.3065
rhand -14.615 0.907347
rfingers 7.12502
rthumb 11.5361 -28.7552
lclavicle -1.15295e-014 -2.38542e-014
lhumerus 52.7089 4.5118 6.2974
lradius 65.2883
lwrist -6.64706
lhand -54.9281 0.153028
lfingers 7.12502
lthumb -27.3114 28.1948
rfemur -0.228191 10.6312 21.4234
rtibia 19.9918
rfoot -33.7789 -32.699
rtoes -13.0322
lfemur -3.11928 -21.0397 -19.6081
ltibia 23.01
lfoot -21.1802 25.3117
ltoes -8.46734
